<svg width="527" height="257" viewBox="0 0 527 257" fill="none" xmlns="http://www.w3.org/2000/svg">
<rect width="527" height="257" fill="#1E1E1E" style="fill:#1E1E1E;fill:color(display-p3 0.1176 0.1176 0.1176);fill-opacity:1;"/>
<g id="Frame">
<rect width="1920" height="1080" transform="translate(-705.876 -211)" fill="#C4B29E" style="fill:#C4B29E;fill:color(display-p3 0.7686 0.6980 0.6196);fill-opacity:1;"/>
<g id="Group 144">
<rect id="Rectangle 38" width="526.402" height="256.335" fill="white" style="fill:white;fill-opacity:1;"/>
<g id="Group 50">
<path id="Theorem" d="M209.54 118.073V114.712H211.407C212.833 114.712 213.841 114.61 214.429 114.406C215.018 114.18 215.369 113.885 215.482 113.523C215.595 113.161 215.652 112.776 215.652 112.369V78.142H208.283C206.586 78.142 205.374 78.2099 204.65 78.3457C203.926 78.4815 203.473 78.6853 203.292 78.9569C203.133 79.2286 203.054 79.5794 203.054 80.0095C203.054 80.6886 203.054 81.4696 203.054 82.3524C203.077 83.2126 203.088 84.0841 203.088 84.967C203.088 85.8498 203.088 86.6534 203.088 87.3778H199.523V74.2711C199.523 74.2711 200.077 74.2824 201.187 74.3051C202.296 74.3051 203.643 74.3164 205.227 74.339C206.812 74.339 208.34 74.339 209.811 74.339C211.283 74.339 212.381 74.339 213.105 74.339H226.212C227.253 74.339 228.487 74.339 229.913 74.339C231.339 74.3164 232.754 74.3051 234.157 74.3051C235.583 74.2824 236.806 74.2711 237.824 74.2711V87.3778H234.225V80.383C234.225 79.7492 234.135 79.2738 233.953 78.9569C233.795 78.64 233.331 78.4249 232.561 78.3118C231.792 78.1986 230.501 78.142 228.69 78.142H221.831V112.742C221.831 113.24 221.888 113.636 222.001 113.931C222.137 114.202 222.499 114.406 223.088 114.542C223.676 114.655 224.661 114.712 226.042 114.712H227.943V118.073C226.63 118.073 225.317 118.073 224.005 118.073C222.714 118.051 221.118 118.028 219.217 118.005C219.081 118.005 218.617 118.017 217.825 118.039C217.055 118.039 216.138 118.039 215.074 118.039C214.033 118.039 213.003 118.051 211.984 118.073C210.966 118.073 210.151 118.073 209.54 118.073ZM241.593 118.073V114.983C243.291 114.983 244.502 114.938 245.227 114.848C245.951 114.734 246.392 114.553 246.551 114.304C246.709 114.055 246.788 113.727 246.788 113.32V78.5834C246.788 78.0175 246.483 77.6553 245.872 77.4968C245.26 77.3384 244.434 77.2478 243.393 77.2252C243.167 77.2252 242.918 77.2252 242.646 77.2252C242.374 77.2252 242.091 77.2252 241.797 77.2252V74.1692C242.205 74.1692 242.623 74.1806 243.053 74.2032C243.506 74.2032 244.027 74.2032 244.615 74.2032C245.86 74.2032 247.128 74.1919 248.418 74.1692C249.709 74.124 251.044 74.0787 252.425 74.0334C252.425 75.0747 252.425 76.1952 252.425 77.395C252.448 78.5721 252.459 79.7945 252.459 81.0621C252.459 82.3072 252.459 83.5522 252.459 84.7972C252.459 86.0422 252.459 87.2646 252.459 88.4644C252.459 89.6415 252.459 90.762 252.459 91.8259C254.089 90.1508 255.9 88.9058 257.892 88.0908C259.884 87.2759 262.068 86.8685 264.445 86.8685C267.275 86.8685 269.391 87.457 270.795 88.6341C272.198 89.7886 273.126 91.5316 273.579 93.8632C274.054 96.1722 274.292 99.0584 274.292 102.522V112.946C274.292 113.987 274.632 114.587 275.311 114.746C275.99 114.904 277.258 114.983 279.114 114.983V118.073C277.914 118.073 276.726 118.073 275.548 118.073C274.394 118.051 272.991 118.028 271.338 118.005C269.708 118.005 268.282 118.017 267.06 118.039C265.86 118.062 264.649 118.073 263.426 118.073V114.983C265.419 114.938 266.765 114.814 267.467 114.61C268.192 114.406 268.554 113.885 268.554 113.048V100.009C268.554 96.7041 268.146 94.3046 267.331 92.8106C266.539 91.3166 264.864 90.5696 262.306 90.5696C260.676 90.5696 259.205 90.8865 257.892 91.5203C256.579 92.1315 255.458 92.8785 254.53 93.7614C253.625 94.6442 252.934 95.4817 252.459 96.274V113.523C252.459 114.248 252.81 114.678 253.512 114.814C254.213 114.927 255.583 114.983 257.62 114.983V118.073C256.307 118.073 255.04 118.073 253.817 118.073C252.595 118.051 251.112 118.028 249.369 118.005C247.784 118.005 246.404 118.017 245.227 118.039C244.049 118.062 242.838 118.073 241.593 118.073ZM299.181 119.024C295.763 119.024 292.82 118.356 290.353 117.021C287.908 115.685 286.029 113.818 284.716 111.418C283.403 108.996 282.747 106.178 282.747 102.963C282.747 99.7035 283.415 96.8626 284.75 94.4405C286.086 92.0183 287.965 90.1395 290.387 88.8039C292.809 87.4457 295.627 86.7666 298.842 86.7666C302.101 86.7666 304.908 87.4344 307.263 88.7699C309.617 90.0829 311.428 91.9957 312.695 94.5084C313.986 96.9984 314.642 99.9978 314.665 103.506L312.627 104.118H288.587C288.633 107.74 289.685 110.58 291.745 112.64C293.828 114.7 296.567 115.73 299.962 115.73C302.316 115.73 304.376 115.266 306.142 114.338C307.908 113.387 309.209 111.825 310.047 109.652H314.155C313.25 112.754 311.473 115.097 308.825 116.681C306.176 118.243 302.962 119.024 299.181 119.024ZM288.621 101.164H309.164C308.892 97.7002 307.862 94.9837 306.074 93.0143C304.308 91.0449 301.92 90.0602 298.91 90.0602C296.035 90.0602 293.692 91.0563 291.881 93.0483C290.093 95.0403 289.006 97.7454 288.621 101.164ZM336.396 119.024C333.204 119.024 330.397 118.356 327.975 117.021C325.553 115.685 323.652 113.818 322.271 111.418C320.913 108.996 320.233 106.155 320.233 102.895C320.233 99.6356 320.913 96.7947 322.271 94.3725C323.652 91.9504 325.553 90.0829 327.975 88.7699C330.42 87.4344 333.227 86.7666 336.396 86.7666C339.588 86.7666 342.395 87.4344 344.817 88.7699C347.262 90.0829 349.175 91.9504 350.555 94.3725C351.936 96.772 352.627 99.613 352.627 102.895C352.627 106.132 351.936 108.962 350.555 111.384C349.197 113.806 347.296 115.685 344.851 117.021C342.429 118.356 339.611 119.024 336.396 119.024ZM336.396 115.493C339.52 115.493 342.021 114.349 343.9 112.063C345.779 109.777 346.718 106.71 346.718 102.861C346.718 98.9904 345.779 95.9232 343.9 93.6595C342.044 91.3958 339.543 90.264 336.396 90.264C333.25 90.264 330.748 91.3958 328.892 93.6595C327.036 95.9005 326.108 98.9678 326.108 102.861C326.108 106.71 327.036 109.777 328.892 112.063C330.748 114.349 333.25 115.493 336.396 115.493ZM357.041 118.073V114.983C358.784 114.983 360.018 114.927 360.742 114.814C361.466 114.7 361.908 114.485 362.066 114.168C362.225 113.851 362.304 113.387 362.304 112.776V92.2673C362.304 91.475 361.987 91.0223 361.353 90.9091C360.742 90.7733 359.361 90.7054 357.211 90.7054V87.6834C357.55 87.6834 358.093 87.6834 358.84 87.6834C359.61 87.6834 360.323 87.6947 360.98 87.7173C361.636 87.7173 361.964 87.7173 361.964 87.7173C362.892 87.7173 363.843 87.6947 364.817 87.6494C365.79 87.6042 366.786 87.5702 367.805 87.5476V93.7274C368.891 91.6222 370.408 89.9697 372.355 88.7699C374.301 87.5702 376.588 86.9703 379.214 86.9703C380.232 86.9703 381.262 87.0382 382.303 87.1741V94.5763C381.964 94.5763 381.624 94.5763 381.285 94.5763C380.945 94.5763 380.606 94.5763 380.266 94.5763C379.813 93.4897 379.247 92.6295 378.568 91.9957C377.912 91.3392 376.984 91.011 375.784 91.011C373.566 91.011 371.732 92.0523 370.283 94.1349C368.857 96.2174 368.122 98.9112 368.076 102.216C368.076 102.216 368.076 102.578 368.076 103.303C368.076 104.004 368.076 104.887 368.076 105.951C368.076 106.993 368.076 108.056 368.076 109.143C368.076 110.207 368.076 111.112 368.076 111.859C368.076 112.606 368.076 113.014 368.076 113.082C368.076 114.055 368.495 114.621 369.333 114.78C370.17 114.915 371.687 114.983 373.883 114.983V118.073C372.456 118.073 371.064 118.062 369.706 118.039C368.348 118.017 366.695 118.005 364.749 118.005C363.074 118.005 361.67 118.017 360.538 118.039C359.429 118.062 358.263 118.073 357.041 118.073ZM402.133 119.024C398.715 119.024 395.772 118.356 393.305 117.021C390.86 115.685 388.981 113.818 387.668 111.418C386.355 108.996 385.699 106.178 385.699 102.963C385.699 99.7035 386.367 96.8626 387.702 94.4405C389.038 92.0183 390.917 90.1395 393.339 88.8039C395.761 87.4457 398.579 86.7666 401.794 86.7666C405.053 86.7666 407.86 87.4344 410.215 88.7699C412.569 90.0829 414.38 91.9957 415.647 94.5084C416.938 96.9984 417.594 99.9978 417.617 103.506L415.58 104.118H391.539C391.585 107.74 392.637 110.58 394.697 112.64C396.78 114.7 399.519 115.73 402.914 115.73C405.268 115.73 407.328 115.266 409.094 114.338C410.86 113.387 412.161 111.825 412.999 109.652H417.107C416.202 112.754 414.425 115.097 411.777 116.681C409.128 118.243 405.914 119.024 402.133 119.024ZM391.573 101.164H412.116C411.844 97.7002 410.814 94.9837 409.026 93.0143C407.26 91.0449 404.872 90.0602 401.862 90.0602C398.987 90.0602 396.644 91.0563 394.833 93.0483C393.045 95.0403 391.958 97.7454 391.573 101.164ZM421.929 118.073V114.983C423.582 114.983 424.759 114.915 425.46 114.78C426.162 114.644 426.581 114.44 426.717 114.168C426.875 113.874 426.954 113.512 426.954 113.082V92.2673C426.954 91.5203 426.592 91.0789 425.868 90.9431C425.144 90.7846 423.887 90.7054 422.099 90.7054V87.6834C422.552 87.6834 422.993 87.6947 423.423 87.7173C423.876 87.7173 424.419 87.7173 425.053 87.7173C426.253 87.7173 427.464 87.6947 428.686 87.6494C429.909 87.6042 431.131 87.5702 432.353 87.5476V92.5729C433.87 90.7846 435.636 89.4151 437.65 88.4644C439.688 87.491 441.906 87.0043 444.306 87.0043C446.32 87.0043 448.109 87.491 449.67 88.4644C451.255 89.4377 452.443 90.8638 453.236 92.7427C454.888 90.8865 456.733 89.4717 458.77 88.4983C460.808 87.5249 462.958 87.0382 465.222 87.0382C467.984 87.0382 470.055 87.6155 471.436 88.7699C472.839 89.9244 473.767 91.5543 474.22 93.6595C474.695 95.7421 474.933 98.1982 474.933 101.028V113.489C474.933 114.236 475.273 114.666 475.952 114.78C476.631 114.87 477.899 114.938 479.755 114.983V118.073C478.51 118.073 477.253 118.062 475.986 118.039C474.718 118.017 473.269 118.005 471.639 118.005C470.078 118.005 468.731 118.017 467.599 118.039C466.467 118.062 465.312 118.073 464.135 118.073V114.983C466.082 114.938 467.418 114.836 468.142 114.678C468.866 114.497 469.229 113.965 469.229 113.082V99.9751C469.229 96.9418 468.855 94.6668 468.108 93.1502C467.361 91.6335 465.709 90.8752 463.151 90.8752C461.045 90.8752 459.257 91.3619 457.786 92.3352C456.337 93.3086 455.081 94.5084 454.017 95.9345C453.971 96.7494 453.938 97.5757 453.915 98.4132C453.892 99.2508 453.881 100.111 453.881 100.994V113.32C453.881 114.134 454.198 114.61 454.832 114.746C455.488 114.859 456.767 114.938 458.669 114.983V118.073C457.537 118.073 456.416 118.073 455.307 118.073C454.22 118.051 452.885 118.028 451.3 118.005C449.648 118.005 448.188 118.017 446.92 118.039C445.652 118.062 444.385 118.073 443.117 118.073V114.983C445.041 114.938 446.354 114.825 447.056 114.644C447.78 114.463 448.142 113.953 448.142 113.116V99.9751C448.142 97.0097 447.78 94.7234 447.056 93.1162C446.332 91.509 444.679 90.7054 442.098 90.7054C439.948 90.7054 438.182 91.1808 436.801 92.1315C435.421 93.0823 434.096 94.3273 432.829 95.8666C432.806 95.8892 432.783 96.1948 432.761 96.7834C432.738 97.3719 432.716 98.1303 432.693 99.0584C432.693 99.8506 432.682 100.722 432.659 101.673C432.659 102.624 432.648 103.597 432.625 104.593C432.625 105.589 432.625 106.562 432.625 107.513C432.625 108.464 432.625 109.324 432.625 110.094C432.625 111.814 432.67 113.014 432.761 113.693C432.874 114.372 433.281 114.757 433.983 114.848C434.708 114.938 435.975 114.983 437.786 114.983V118.073C436.609 118.073 435.443 118.073 434.289 118.073C433.157 118.051 431.765 118.028 430.112 118.005C428.46 118.005 427 118.017 425.732 118.039C424.464 118.062 423.197 118.073 421.929 118.073Z" fill="#08322B" style="fill:#08322B;fill:color(display-p3 0.0314 0.1961 0.1686);fill-opacity:1;"/>
<path id="Partners" d="M202.596 178.809V175.334H204.421C205.872 175.334 206.89 175.229 207.475 175.019C208.083 174.785 208.446 174.457 208.563 174.036C208.703 173.615 208.773 173.1 208.773 172.491V139.286C208.773 138.35 208.516 137.741 208.001 137.461C207.51 137.18 206.351 137.028 204.526 137.004C204.245 137.004 203.941 137.004 203.614 137.004C203.309 137.004 202.97 137.004 202.596 137.004V133.529H223.27C227.108 133.529 230.243 134.079 232.677 135.179C235.134 136.279 236.948 137.812 238.118 139.777C239.288 141.719 239.873 143.978 239.873 146.552C239.873 149.102 239.311 151.349 238.188 153.291C237.088 155.233 235.321 156.754 232.888 157.854C230.477 158.931 227.295 159.469 223.34 159.469H215.197V172.632C215.197 173.942 215.513 174.726 216.145 174.983C216.776 175.217 217.935 175.334 219.62 175.334H221.41V178.809C220.146 178.809 218.929 178.798 217.759 178.774C216.613 178.751 215.138 178.739 213.336 178.739C211.184 178.739 209.265 178.751 207.58 178.774C205.895 178.798 204.234 178.809 202.596 178.809ZM215.197 155.853H221.901C229.67 155.853 233.555 152.788 233.555 146.657C233.555 143.615 232.677 141.287 230.922 139.672C229.19 138.057 226.242 137.25 222.077 137.25H215.197V155.853ZM253.948 179.547C250.602 179.547 247.923 178.646 245.91 176.844C243.898 175.042 242.891 172.749 242.891 169.964C242.891 166.969 244.085 164.558 246.472 162.733C248.859 160.908 252.193 159.995 256.476 159.995C257.926 159.995 259.401 160.112 260.898 160.346C262.419 160.557 263.952 160.861 265.496 161.259V156.064C265.496 153.958 264.783 152.343 263.355 151.22C261.951 150.073 259.787 149.5 256.862 149.5C252.064 149.5 249.21 151.442 248.297 155.327L245.068 154.941L245.524 148.763C247.022 148.084 248.777 147.535 250.789 147.113C252.802 146.669 255.048 146.446 257.529 146.446C262.489 146.446 266.035 147.347 268.164 149.149C270.317 150.951 271.393 153.782 271.393 157.644V170.947C271.393 172.561 271.475 173.696 271.639 174.352C271.803 175.007 272.119 175.393 272.587 175.51C273.055 175.627 273.757 175.685 274.693 175.685H276.272V178.809C275.898 178.786 275.524 178.774 275.149 178.774C274.775 178.774 274.4 178.786 274.026 178.809C273.652 178.809 273.277 178.809 272.903 178.809C271.639 178.833 270.399 178.856 269.182 178.88C267.965 178.903 266.807 178.926 265.707 178.95V174.141C264.303 175.919 262.63 177.265 260.688 178.178C258.769 179.09 256.522 179.547 253.948 179.547ZM255.738 176.177C257.259 176.177 258.769 175.861 260.266 175.229C261.764 174.574 263.004 173.615 263.987 172.351C264.993 171.087 265.496 169.508 265.496 167.612V164.172C264.092 163.775 262.759 163.47 261.495 163.26C260.231 163.049 259.003 162.944 257.809 162.944C255.001 162.944 252.778 163.552 251.14 164.769C249.526 165.963 248.718 167.636 248.718 169.789C248.718 171.707 249.373 173.252 250.684 174.422C251.994 175.592 253.679 176.177 255.738 176.177ZM279.818 178.809V175.615C281.619 175.615 282.895 175.557 283.644 175.44C284.392 175.323 284.849 175.1 285.013 174.773C285.176 174.445 285.258 173.966 285.258 173.334V152.133C285.258 151.314 284.931 150.846 284.275 150.729C283.644 150.588 282.216 150.518 279.993 150.518V147.394C280.344 147.394 280.906 147.394 281.678 147.394C282.474 147.394 283.211 147.406 283.889 147.429C284.568 147.429 284.907 147.429 284.907 147.429C285.867 147.429 286.85 147.406 287.856 147.359C288.862 147.312 289.892 147.277 290.945 147.254V153.642C292.068 151.466 293.636 149.758 295.648 148.517C297.661 147.277 300.024 146.657 302.739 146.657C303.792 146.657 304.856 146.727 305.933 146.868V154.52C305.582 154.52 305.231 154.52 304.88 154.52C304.529 154.52 304.178 154.52 303.827 154.52C303.359 153.396 302.774 152.507 302.072 151.852C301.393 151.173 300.434 150.834 299.193 150.834C296.9 150.834 295.005 151.91 293.507 154.063C292.033 156.216 291.272 159.001 291.225 162.417C291.225 162.417 291.225 162.792 291.225 163.541C291.225 164.266 291.225 165.179 291.225 166.278C291.225 167.355 291.225 168.455 291.225 169.578C291.225 170.678 291.225 171.614 291.225 172.386C291.225 173.158 291.225 173.579 291.225 173.65C291.225 174.656 291.658 175.241 292.524 175.405C293.39 175.545 294.958 175.615 297.228 175.615V178.809C295.753 178.809 294.314 178.798 292.91 178.774C291.506 178.751 289.798 178.739 287.786 178.739C286.054 178.739 284.603 178.751 283.433 178.774C282.286 178.798 281.081 178.809 279.818 178.809ZM321.061 179.617C318.885 179.617 317.224 179.16 316.077 178.248C314.954 177.312 314.193 176.001 313.795 174.317C313.398 172.632 313.199 170.666 313.199 168.42V150.518H307.442V147.745C308.214 147.722 309.092 147.675 310.075 147.605C311.081 147.511 311.947 147.429 312.672 147.359C313.421 147.289 313.795 147.254 313.795 147.254C313.819 147.02 313.866 146.505 313.936 145.709C314.029 144.89 314.123 144.013 314.217 143.077C314.31 142.117 314.392 141.287 314.462 140.585C314.532 139.859 314.568 139.473 314.568 139.426L319.025 138.514V147.394H327.45V150.518H319.06V168.104C319.06 170.467 319.189 172.351 319.447 173.755C319.704 175.159 320.663 175.861 322.325 175.861C323.003 175.861 323.612 175.58 324.15 175.019C324.712 174.457 324.993 173.474 324.993 172.07L328.187 171.754C328.187 174.492 327.473 176.493 326.046 177.756C324.642 178.997 322.98 179.617 321.061 179.617ZM331.521 178.809C331.521 178.622 331.521 178.388 331.521 178.107C331.521 177.827 331.521 177.534 331.521 177.23C331.521 176.902 331.521 176.598 331.521 176.317C331.521 176.036 331.521 175.802 331.521 175.615C333.276 175.615 334.528 175.568 335.277 175.475C336.026 175.381 336.482 175.206 336.646 174.948C336.833 174.668 336.927 174.281 336.927 173.79V151.676C336.927 151.091 336.576 150.752 335.874 150.659C335.195 150.565 333.815 150.518 331.732 150.518C331.732 150.261 331.732 149.933 331.732 149.535C331.732 149.137 331.72 148.74 331.697 148.342C331.697 147.944 331.697 147.628 331.697 147.394C332.492 147.394 333.253 147.394 333.978 147.394C334.727 147.394 335.453 147.382 336.155 147.359C337.301 147.359 338.401 147.347 339.454 147.324C340.531 147.277 341.584 147.242 342.613 147.219V152.168C344.204 150.436 346.041 149.102 348.124 148.166C350.207 147.207 352.406 146.727 354.723 146.727C358.139 146.727 360.76 147.652 362.586 149.5C364.411 151.325 365.323 154.192 365.323 158.1V174.176C365.323 174.902 365.686 175.311 366.412 175.405C367.137 175.498 368.412 175.568 370.238 175.615V178.809C369.091 178.809 367.956 178.809 366.833 178.809C365.733 178.786 364.364 178.763 362.726 178.739C361.018 178.739 359.485 178.751 358.128 178.774C356.771 178.798 355.413 178.809 354.056 178.809V175.615C355.835 175.615 357.086 175.568 357.812 175.475C358.561 175.381 359.005 175.217 359.146 174.983C359.31 174.749 359.391 174.422 359.391 174.001V160.136C359.391 156.977 358.982 154.625 358.163 153.08C357.344 151.536 355.612 150.764 352.968 150.764C350.417 150.764 348.323 151.349 346.685 152.519C345.047 153.689 343.783 154.836 342.894 155.959C342.871 156.825 342.847 157.702 342.824 158.591C342.8 159.457 342.789 160.358 342.789 161.294V173.966C342.789 174.785 343.198 175.264 344.017 175.405C344.86 175.545 346.229 175.615 348.124 175.615V178.809C346.907 178.809 345.702 178.809 344.509 178.809C343.339 178.786 341.899 178.763 340.191 178.739C338.436 178.739 336.88 178.751 335.523 178.774C334.166 178.798 332.832 178.809 331.521 178.809ZM391.298 179.792C387.765 179.792 384.723 179.102 382.172 177.721C379.645 176.341 377.702 174.41 376.345 171.93C374.988 169.426 374.309 166.512 374.309 163.19C374.309 159.82 375 156.883 376.38 154.379C377.761 151.875 379.703 149.933 382.207 148.552C384.711 147.148 387.624 146.446 390.947 146.446C394.317 146.446 397.219 147.137 399.652 148.517C402.086 149.875 403.958 151.852 405.268 154.449C406.602 157.023 407.281 160.124 407.304 163.751L405.198 164.383H380.347C380.393 168.127 381.482 171.064 383.611 173.193C385.764 175.323 388.595 176.387 392.105 176.387C394.539 176.387 396.669 175.908 398.494 174.948C400.319 173.966 401.665 172.351 402.53 170.104H406.778C405.842 173.31 404.005 175.732 401.267 177.37C398.529 178.985 395.206 179.792 391.298 179.792ZM380.382 161.329H401.618C401.337 157.749 400.272 154.941 398.424 152.905C396.598 150.869 394.13 149.851 391.017 149.851C388.045 149.851 385.624 150.881 383.751 152.94C381.903 154.999 380.78 157.796 380.382 161.329ZM411.938 178.809V175.615C413.739 175.615 415.015 175.557 415.764 175.44C416.512 175.323 416.969 175.1 417.132 174.773C417.296 174.445 417.378 173.966 417.378 173.334V152.133C417.378 151.314 417.051 150.846 416.395 150.729C415.764 150.588 414.336 150.518 412.113 150.518V147.394C412.464 147.394 413.026 147.394 413.798 147.394C414.593 147.394 415.331 147.406 416.009 147.429C416.688 147.429 417.027 147.429 417.027 147.429C417.987 147.429 418.969 147.406 419.976 147.359C420.982 147.312 422.011 147.277 423.065 147.254V153.642C424.188 151.466 425.756 149.758 427.768 148.517C429.78 147.277 432.144 146.657 434.858 146.657C435.911 146.657 436.976 146.727 438.053 146.868V154.52C437.702 154.52 437.351 154.52 437 154.52C436.649 154.52 436.298 154.52 435.947 154.52C435.479 153.396 434.894 152.507 434.192 151.852C433.513 151.173 432.553 150.834 431.313 150.834C429.02 150.834 427.125 151.91 425.627 154.063C424.153 156.216 423.392 159.001 423.345 162.417C423.345 162.417 423.345 162.792 423.345 163.541C423.345 164.266 423.345 165.179 423.345 166.278C423.345 167.355 423.345 168.455 423.345 169.578C423.345 170.678 423.345 171.614 423.345 172.386C423.345 173.158 423.345 173.579 423.345 173.65C423.345 174.656 423.778 175.241 424.644 175.405C425.51 175.545 427.078 175.615 429.348 175.615V178.809C427.873 178.809 426.434 178.798 425.03 178.774C423.626 178.751 421.918 178.739 419.905 178.739C418.174 178.739 416.723 178.751 415.553 178.774C414.406 178.798 413.201 178.809 411.938 178.809ZM455.041 179.547C452.631 179.547 450.607 179.254 448.969 178.669C447.354 178.061 446.032 177.136 445.003 175.896L444.652 178.529C444.137 178.529 443.622 178.529 443.107 178.529C442.616 178.505 442.101 178.494 441.563 178.494V168.384H444.967C445.014 171.029 445.845 173.053 447.46 174.457C449.074 175.838 451.332 176.528 454.234 176.528C456.621 176.528 458.563 176.048 460.061 175.089C461.559 174.106 462.307 172.784 462.307 171.122C462.307 169.882 461.839 168.899 460.903 168.174C459.967 167.425 458.727 166.793 457.183 166.278C455.662 165.764 453.988 165.249 452.163 164.734C449.964 164.055 448.115 163.33 446.617 162.558C445.12 161.785 443.996 160.838 443.248 159.715C442.499 158.591 442.124 157.187 442.124 155.502C442.124 153.045 443.142 150.974 445.178 149.29C447.237 147.581 449.987 146.727 453.427 146.727C455.346 146.727 457.159 146.985 458.867 147.499C460.576 147.991 461.956 148.786 463.009 149.886C463.033 149.839 463.103 149.629 463.22 149.254C463.337 148.857 463.454 148.471 463.571 148.096C463.688 147.698 463.746 147.499 463.746 147.499C463.746 147.499 463.945 147.511 464.343 147.535C464.741 147.535 465.151 147.535 465.572 147.535C466.016 147.535 466.285 147.546 466.379 147.57V157.117H463.08C462.986 154.777 462.202 152.975 460.728 151.712C459.254 150.424 457.148 149.781 454.41 149.781C452.07 149.781 450.326 150.296 449.18 151.325C448.033 152.355 447.46 153.537 447.46 154.871C447.46 156.321 448.197 157.445 449.671 158.24C451.145 159.013 453.052 159.703 455.392 160.311C457.92 160.966 460.108 161.68 461.956 162.452C463.828 163.201 465.268 164.184 466.274 165.401C467.28 166.618 467.783 168.244 467.783 170.28C467.783 172.269 467.257 173.954 466.204 175.334C465.151 176.715 463.665 177.768 461.746 178.494C459.85 179.196 457.616 179.547 455.041 179.547Z" fill="#08322B" style="fill:#08322B;fill:color(display-p3 0.0314 0.1961 0.1686);fill-opacity:1;"/>
<path id="Union" d="M140.838 74.288C164.915 74.288 174.576 91.2602 174.576 106.717C174.576 122.173 164.915 139.599 140.838 139.599H115.688V165.057C115.688 176.118 122.742 178.544 133.017 178.544V180.362H94.2178V180.361H81.791V178.234C87.0989 178.234 91.1943 175.042 91.1943 165.013V76.5673L75.4395 76.871C61.9424 76.8713 48.9004 93.436 46.3223 109.392L44.0479 109.089L49.2041 74.288H140.838ZM115.688 113.714V137.023H139.305C158.321 137.023 163.465 121.415 163.158 106.717C162.851 92.1695 158.474 76.8643 139.151 76.8641H116.179L115.688 113.714Z" fill="#08322B" style="fill:#08322B;fill:color(display-p3 0.0314 0.1961 0.1686);fill-opacity:1;"/>
</g>
</g>
</g>
</svg>
